<svg width="24" height="24" viewBox="0 0 24 24" fill="none" xmlns="http://www.w3.org/2000/svg">
<path fill-rule="evenodd" clip-rule="evenodd" d="M19.5 3.02252H16.5V1.52252H15V3.02252H9V1.52252H7.5V3.02252H4.5C3.67157 3.02252 3 3.69409 3 4.52252V19.5225C3 20.3509 3.67157 21.0225 4.5 21.0225H19.5C20.3284 21.0225 21 20.3509 21 19.5225V4.52252C21 3.69409 20.3284 3.02252 19.5 3.02252ZM19.5 19.5225H4.5V9.02252H19.5V19.5225ZM19.5 7.52252H4.5V4.52252H7.5V6.02252H9V4.52252H15V6.02252H16.5V4.52252H19.5V7.52252Z" fill="#122C5F"/>
</svg>
