<svg width="24" height="24" viewBox="0 0 24 24" fill="none" xmlns="http://www.w3.org/2000/svg">
<path fill-rule="evenodd" clip-rule="evenodd" d="M3.75 9.5332C3.81172 5.03763 7.50438 1.44232 12 1.5007C16.4956 1.44232 20.1883 5.03763 20.25 9.5332C20.2481 11.2789 19.6679 12.9747 18.6 14.3557L12 24.0007L5.4 14.3557C4.33213 12.9747 3.7519 11.2789 3.75 9.5332ZM18.75 9.5332C18.6802 5.86957 15.6639 2.95052 12 3.0007C8.33605 2.95052 5.31981 5.86957 5.25 9.5332C5.24891 10.9748 5.73821 12.374 6.6375 13.5007L12 21.3457L17.4075 13.4407C18.2779 12.3242 18.7504 10.9489 18.75 9.5332ZM12 7.5C13.2426 7.5 14.25 8.50736 14.25 9.75C14.25 10.9926 13.2426 12 12 12C10.7574 12 9.75 10.9926 9.75 9.75C9.75 8.50736 10.7574 7.5 12 7.5ZM8.25 9.75C8.25 7.67893 9.92893 6 12 6C14.0711 6 15.75 7.67893 15.75 9.75C15.75 11.8211 14.0711 13.5 12 13.5C9.92893 13.5 8.25 11.8211 8.25 9.75Z" fill="#122C5F"/>
</svg>
