<svg width="24" height="24" viewBox="0 0 24 24" fill="none" xmlns="http://www.w3.org/2000/svg">
<path fill-rule="evenodd" clip-rule="evenodd" d="M19.5 16.5C18.9703 16.5026 18.4515 16.6505 18 16.9275L15.6825 14.6025C16.7877 13.0435 16.7877 10.9565 15.6825 9.3975L18 7.0725C18.4515 7.34954 18.9703 7.49741 19.5 7.5C21.1569 7.5 22.5 6.15685 22.5 4.5C22.5 2.84315 21.1569 1.5 19.5 1.5C17.8431 1.5 16.5 2.84315 16.5 4.5C16.5026 5.02969 16.6505 5.54853 16.9275 6L14.6025 8.3175C13.0435 7.2123 10.9565 7.2123 9.3975 8.3175L7.0725 6C7.34954 5.54853 7.49741 5.02969 7.5 4.5C7.5 2.84315 6.15685 1.5 4.5 1.5C2.84315 1.5 1.5 2.84315 1.5 4.5C1.5 6.15685 2.84315 7.5 4.5 7.5C5.02969 7.49741 5.54853 7.34954 6 7.0725L8.3175 9.3975C7.2123 10.9565 7.2123 13.0435 8.3175 14.6025L6 16.9275C5.54853 16.6505 5.02969 16.5026 4.5 16.5C2.84315 16.5 1.5 17.8431 1.5 19.5C1.5 21.1569 2.84315 22.5 4.5 22.5C6.15685 22.5 7.5 21.1569 7.5 19.5C7.49741 18.9703 7.34954 18.4515 7.0725 18L9.3975 15.6825C10.9565 16.7877 13.0435 16.7877 14.6025 15.6825L16.9275 18C16.6505 18.4515 16.5026 18.9703 16.5 19.5C16.5 21.1569 17.8431 22.5 19.5 22.5C21.1569 22.5 22.5 21.1569 22.5 19.5C22.5 17.8431 21.1569 16.5 19.5 16.5V16.5ZM19.5 3C20.3284 3 21 3.67157 21 4.5C21 5.32843 20.3284 6 19.5 6C18.6716 6 18 5.32843 18 4.5C18 3.67157 18.6716 3 19.5 3ZM3 4.5C3 3.67157 3.67157 3 4.5 3C5.32843 3 6 3.67157 6 4.5C6 5.32843 5.32843 6 4.5 6C3.67157 6 3 5.32843 3 4.5V4.5ZM4.5 21C3.67157 21 3 20.3284 3 19.5C3 18.6716 3.67157 18 4.5 18C5.32843 18 6 18.6716 6 19.5C6 20.3284 5.32843 21 4.5 21ZM12 15C10.3431 15 9 13.6569 9 12C9 10.3431 10.3431 9 12 9C13.6569 9 15 10.3431 15 12C15 12.7956 14.6839 13.5587 14.1213 14.1213C13.5587 14.6839 12.7956 15 12 15ZM19.5 21C18.6716 21 18 20.3284 18 19.5C18 18.6716 18.6716 18 19.5 18C20.3284 18 21 18.6716 21 19.5C21 20.3284 20.3284 21 19.5 21Z" fill="#F2F2F2"/>
</svg>
