<svg width="24" height="24" viewBox="0 0 24 24" fill="none" xmlns="http://www.w3.org/2000/svg">
<path fill-rule="evenodd" clip-rule="evenodd" d="M12 1.5H21C21.8281 1.50083 22.4992 2.17192 22.5 3V22.5H1.5V12C1.50083 11.1719 2.17192 10.5008 3 10.5H10.5V3C10.5008 2.17192 11.1719 1.50083 12 1.5ZM13.5 5.5H15V7H13.5V5.5ZM18 5.5H19.5V7H18V5.5ZM15 10H13.5V11.5H15V10ZM18 10H19.5V11.5H18V10ZM15 14.5H13.5V16H15V14.5ZM18 14.5H19.5V16H18V14.5ZM6.75 21V15.75H9.75V21H6.75ZM11.25 21H21V3H12V12H3V21H5.25V15C5.25 14.5858 5.58579 14.25 6 14.25H10.5C10.9142 14.25 11.25 14.5858 11.25 15V21Z" fill="#F2F2F2"/>
</svg>
