<svg width="24" height="24" viewBox="0 0 24 24" fill="none" xmlns="http://www.w3.org/2000/svg">
<path fill-rule="evenodd" clip-rule="evenodd" d="M7.12521 5.99997H15.0752C15.4602 7.88619 17.211 9.17447 19.1264 8.98098C21.0417 8.78749 22.4994 7.17509 22.4994 5.24997C22.4994 3.32485 21.0417 1.71245 19.1264 1.51896C17.211 1.32547 15.4602 2.61375 15.0752 4.49997H7.12521C4.84704 4.49997 3.00021 6.34679 3.00021 8.62497C3.00021 10.9031 4.84704 12.75 7.12521 12.75H15.3752C16.825 12.75 18.0002 13.9252 18.0002 15.375C18.0002 16.8247 16.825 18 15.3752 18H8.92521C8.54019 16.1137 6.78944 14.8255 4.87407 15.019C2.9587 15.2125 1.50098 16.8249 1.50098 18.75C1.50098 20.6751 2.9587 22.2875 4.87407 22.481C6.78944 22.6745 8.54019 21.3862 8.92521 19.5H15.3752C17.6534 19.5 19.5002 17.6531 19.5002 15.375C19.5002 13.0968 17.6534 11.25 15.3752 11.25H7.12521C5.67546 11.25 4.50021 10.0747 4.50021 8.62497C4.50021 7.17522 5.67546 5.99997 7.12521 5.99997ZM18.7502 2.99997C19.9929 2.99997 21.0002 4.00733 21.0002 5.24997C21.0002 6.49261 19.9929 7.49997 18.7502 7.49997C17.5076 7.49997 16.5002 6.49261 16.5002 5.24997C16.5002 4.00733 17.5076 2.99997 18.7502 2.99997V2.99997ZM5.25021 21C4.00757 21 3.00021 19.9926 3.00021 18.75C3.00021 17.5073 4.00757 16.5 5.25021 16.5C6.49285 16.5 7.50021 17.5073 7.50021 18.75C7.50021 19.9926 6.49285 21 5.25021 21V21Z" fill="#F2F2F2"/>
</svg>
