<?xml version="1.0" encoding="utf-8"?>
<!-- Generator: Adobe Illustrator 26.3.1, SVG Export Plug-In . SVG Version: 6.00 Build 0)  -->
<svg version="1.1" id="Layer_1" xmlns="http://www.w3.org/2000/svg" xmlns:xlink="http://www.w3.org/1999/xlink" x="0px" y="0px"
	 viewBox="0 0 24 24" style="enable-background:new 0 0 24 24;" xml:space="preserve">
<style type="text/css">
	.st0{fill:none;stroke:#FFFFFF;stroke-width:2;stroke-linecap:round;stroke-linejoin:round;}
</style>
<path class="st0" d="M3,11h3c1.1,0,2,0.9,2,2v3c0,1.1-0.9,2-2,2H5c-1.1,0-2-0.9-2-2V11z M3,11c0-5,4-9,9-9s9,4,9,9 M21,11v5
	c0,1.1-0.9,2-2,2h-1c-1.1,0-2-0.9-2-2v-3c0-1.1,0.9-2,2-2H21z"/>
<path class="st0" d="M21,16v2c0,2.2-1.8,4-4,4h-5"/>
</svg>
