<svg width="24" height="24" viewBox="0 0 24 24" fill="none" xmlns="http://www.w3.org/2000/svg">
<path fill-rule="evenodd" clip-rule="evenodd" d="M8.25014 18H15.7501V19.5H8.25014V18ZM9.75014 21H14.2501V22.5H9.75014V21ZM12.0001 1.5C7.85801 1.5 4.50014 4.85786 4.50014 9C4.39725 11.2112 5.36262 13.3372 7.09514 14.715C7.84514 15.4125 8.25014 15.81 8.25014 16.5H9.75014C9.75014 15.12 8.91764 14.3475 8.10764 13.605C6.68428 12.515 5.89467 10.7897 6.00014 9C6.00014 5.68629 8.68643 3 12.0001 3C15.3139 3 18.0001 5.68629 18.0001 9C18.1039 10.791 17.3113 12.5166 15.8851 13.605C15.0826 14.355 14.2501 15.105 14.2501 16.5H15.7501C15.7501 15.81 16.1476 15.4125 16.9051 14.7075C18.6365 13.3321 19.6018 11.2088 19.5001 9C19.5001 7.01088 18.71 5.10322 17.3034 3.6967C15.8969 2.29018 13.9893 1.5 12.0001 1.5Z" fill="#F2F2F2"/>
</svg>
