<svg width="24" height="24" viewBox="0 0 24 24" fill="none" xmlns="http://www.w3.org/2000/svg">
<path d="M18.5682 2L17.8182 2.3337C15.5057 3.33204 12.1648 3.70745 9.31818 4.69188C7.89489 5.18409 6.5767 5.84038 5.59091 6.89433C4.60511 7.94828 4 9.39989 4 11.2547C4 13.1735 5.15341 14.4889 6.22727 15.2369C6.68466 15.5567 7.12784 15.7875 7.5 15.9488C7.05114 16.7636 6.71875 17.4978 6.5 18.129C6.10227 19.2664 6.03977 20.1563 6.06818 20.7987C6.09659 21.441 6.18182 21.8804 6.18182 21.8665L7.63636 22C7.68182 21.4855 7.54545 21.2158 7.52273 20.7319C7.5 20.2481 7.54261 19.5834 7.88636 18.5962C8.57386 16.6246 10.4801 13.3793 15.4318 8.18465L14.3864 7.20578C11.4176 10.3204 9.5 12.7481 8.25 14.703C7.93182 14.5779 7.50568 14.386 7.06818 14.0801C6.22443 13.4933 5.45455 12.634 5.45455 11.2547C5.45455 9.68632 5.91193 8.65184 6.65909 7.85095C7.40625 7.05006 8.49432 6.4772 9.79545 6.0267C12.1506 5.2119 15.0653 4.80033 17.5682 3.89099C17.8011 4.75584 18.5455 7.71746 18.5455 12.3448C18.5455 14.97 17.9176 16.4744 17.1818 17.3059C16.446 18.1374 15.5597 18.3737 14.7727 18.3737C13.9886 18.3737 13.142 17.9816 12.4091 17.4839C11.6761 16.9861 11.1705 16.4661 10.6591 16.1491L9.88636 17.3504C10.017 17.431 10.7415 18.0873 11.5909 18.663C12.4403 19.2386 13.517 19.7976 14.7727 19.7976C15.892 19.7976 17.2614 19.411 18.2955 18.2403C19.3295 17.0695 20 15.1897 20 12.3448C20 6.77753 18.7955 2.77864 18.7955 2.77864L18.5682 2Z" fill="#F2F2F2"/>
</svg>
