<svg width="24" height="24" viewBox="0 0 24 24" fill="none" xmlns="http://www.w3.org/2000/svg">
<path fill-rule="evenodd" clip-rule="evenodd" d="M19.4993 21.75H19.3718C4.63434 20.9025 2.54184 8.4675 2.24934 4.6725C2.20174 4.07657 2.39326 3.48619 2.78162 3.03169C3.16999 2.57719 3.72327 2.29593 4.31934 2.25H8.45184C9.06654 2.24941 9.6194 2.62392 9.84684 3.195L10.9868 6C11.2112 6.55736 11.0814 7.19483 10.6568 7.62L9.05934 9.2325C9.57048 12.1372 11.841 14.4137 14.7443 14.9325L16.3718 13.32C16.8034 12.9001 17.4443 12.779 17.9993 13.0125L20.8268 14.145C21.3891 14.3795 21.7536 14.9308 21.7493 15.54V19.5C21.7493 20.7426 20.742 21.75 19.4993 21.75ZM4.49934 3.75C4.08512 3.75 3.74934 4.08579 3.74934 4.5V4.56C4.09434 9 6.30684 19.5 19.4543 20.25C19.6533 20.2623 19.849 20.1949 19.9982 20.0626C20.1474 19.9303 20.2378 19.744 20.2493 19.545V15.54L17.4218 14.4075L15.2693 16.545L14.9093 16.5C8.38434 15.6825 7.49934 9.1575 7.49934 9.09L7.45434 8.73L9.58434 6.5775L8.45934 3.75H4.49934Z" fill="#F2F2F2"/>
</svg>
