<svg width="24" height="24" viewBox="0 0 24 24" fill="none" xmlns="http://www.w3.org/2000/svg">
<path fill-rule="evenodd" clip-rule="evenodd" d="M20.25 6.75H18V4.5C18 3.67157 17.3284 3 16.5 3H7.5C6.67157 3 6 3.67157 6 4.5V6.75H3.75C2.50736 6.75 1.5 7.75736 1.5 9V19.5C1.5 20.3284 2.17157 21 3 21H21C21.8284 21 22.5 20.3284 22.5 19.5V9C22.5 7.75736 21.4926 6.75 20.25 6.75ZM7.5 4.5H16.5V6.75H7.5V4.5ZM21 19.5H3V12.75H9V16.5H15V12.75H21V19.5ZM10.5 12.75H13.5V15H10.5V12.75ZM3 11.25V9C3 8.58579 3.33579 8.25 3.75 8.25H20.25C20.6642 8.25 21 8.58579 21 9V11.25H3Z" fill="#F2F2F2"/>
</svg>
